ply
format ascii 1.0
comment Created by Blender 2.69 (sub 0) - www.blender.org, source file: ''
element vertex 130
property float x
property float y
property float z
property float nx
property float ny
property float nz
property float s
property float t
element face 40
property list uchar uint vertex_indices
end_header
-3.000000 -0.000000 3.000000 0.000000 1.000000 0.000000 0.000082 0.000082
3.000000 -0.000000 3.000000 0.000000 1.000000 0.000000 0.666639 0.000082
3.000000 0.000000 -3.000000 0.000000 1.000000 0.000000 0.666639 0.999918
-3.000000 0.000000 -3.000000 0.000000 1.000000 0.000000 0.000082 0.999918
-3.000000 -0.464065 3.951373 0.000000 1.000000 0.000000 0.000089 0.790693
-3.000000 -0.464065 7.951373 0.000000 1.000000 0.000000 0.000089 0.000089
3.000000 -0.464065 7.951373 0.000000 1.000000 0.000000 0.790693 0.000089
3.000000 -0.464065 3.951373 0.000000 1.000000 0.000000 0.790693 0.790693
3.000000 -0.464065 3.951373 0.000000 0.898776 0.438409 0.790693 0.790693
3.000000 -0.000000 3.000000 0.000000 0.898776 0.438409 0.790693 0.999911
-3.000000 -0.000000 3.000000 0.000000 0.898776 0.438409 0.000089 0.999911
-3.000000 -0.464065 3.951373 0.000000 0.898776 0.438409 0.000089 0.790693
3.000000 0.460202 -3.622011 0.000000 1.000000 0.000000 0.776392 0.150254
3.000000 0.460203 -7.999980 0.000000 1.000000 0.000000 0.776392 0.999912
-3.000000 0.460203 -7.999980 0.000000 1.000000 0.000000 0.000088 0.999912
-3.000000 0.460202 -3.622011 0.000000 1.000000 0.000000 0.000088 0.150254
3.000000 0.000000 -3.000000 0.000000 0.803895 0.594771 0.776391 0.000088
3.000000 0.460202 -3.622011 0.000000 0.803895 0.594771 0.776392 0.150254
-3.000000 0.460202 -3.622011 0.000000 0.803895 0.594771 0.000088 0.150254
-3.000000 0.000000 -3.000000 0.000000 0.803895 0.594771 0.000088 0.000089
3.000000 -0.464065 7.951373 -1.000000 0.000000 0.000000 0.000055 0.302968
3.000000 0.535935 7.951373 -1.000000 0.000000 0.000000 0.000055 0.000055
3.000000 0.535935 3.951373 -1.000000 0.000000 0.000000 0.807823 0.000055
3.000000 -0.464065 3.951373 -1.000000 0.000000 0.000000 0.807823 0.302968
3.000000 0.217713 3.000000 -1.000000 0.000000 -0.000000 0.007511 0.260144
3.000000 -0.000000 3.000000 -1.000000 0.000000 -0.000000 0.000048 0.192708
3.000000 -0.464065 3.951373 -1.000000 0.000000 -0.000000 0.180597 0.000048
3.000000 0.535935 3.951373 -1.000000 0.000000 -0.000000 0.214875 0.309795
3.000000 0.000000 -3.000000 -1.000000 0.000000 0.000000 0.000063 0.401700
3.000000 0.217713 -3.000000 -1.000000 0.000000 0.000000 0.000063 0.336395
3.000000 1.217700 -3.000000 -1.000000 0.000000 0.000000 0.000063 0.036435
3.000000 0.460202 -3.622011 -1.000000 0.000000 0.000000 0.124450 0.263657
3.000000 1.338951 -3.999990 -1.000000 0.000000 0.000000 0.200037 0.000064
3.000000 1.338952 -7.999990 -1.000000 0.000000 0.000000 0.999937 0.000063
3.000000 0.460203 -7.999980 -1.000000 0.000000 0.000000 0.999935 0.263655
3.000000 0.000000 -3.000000 -1.000000 -0.000000 0.000000 0.999977 0.054452
3.000000 -0.000000 3.000000 -1.000000 -0.000000 0.000000 0.000023 0.054451
3.000000 0.217713 3.000000 -1.000000 -0.000000 0.000000 0.000023 0.000026
3.000000 0.217713 -3.000000 -1.000000 -0.000000 0.000000 0.999977 0.000023
-3.000000 -0.464065 3.951373 1.000000 0.000000 0.000000 0.807815 0.000067
-3.000000 0.535935 3.951373 1.000000 0.000000 0.000000 0.807815 0.302973
-3.000000 0.535935 7.951373 1.000000 0.000000 0.000000 0.000067 0.302973
-3.000000 -0.464065 7.951373 1.000000 0.000000 0.000000 0.000067 0.000067
-3.000000 0.460202 -3.622011 1.000000 0.000000 0.000000 0.124453 0.138109
-3.000000 1.460202 -3.622011 1.000000 0.000000 0.000000 0.124453 0.438070
-3.000000 1.000000 -3.000000 1.000000 0.000000 0.000000 0.000067 0.300027
-3.000000 0.000000 -3.000000 1.000000 0.000000 0.000000 0.000066 0.000066
-3.000000 0.460203 -7.999980 1.000000 0.000000 0.000000 0.999934 0.138107
-3.000000 1.460203 -7.999980 1.000000 0.000000 0.000000 0.999934 0.438068
-3.000000 -0.000000 3.000000 1.000000 0.000000 0.000000 0.999933 0.140634
-3.000000 1.000000 3.000000 1.000000 0.000000 0.000000 0.999933 0.443541
-3.000000 0.000000 -3.000000 1.000000 0.000000 0.000000 0.999950 0.000050
-3.000000 1.000000 -3.000000 1.000000 0.000000 0.000000 0.999950 0.250025
-3.000000 1.000000 3.000000 1.000000 0.000000 0.000000 0.000050 0.250025
-3.000000 -0.000000 3.000000 1.000000 0.000000 0.000000 0.000050 0.000051
-3.000000 0.535935 3.951373 0.000000 1.000000 0.000000 0.790713 0.000055
-4.000000 0.535935 3.951373 0.000000 1.000000 0.000000 0.790713 0.296552
-4.000000 0.535935 7.951373 0.000000 1.000000 0.000000 0.000054 0.296551
-3.000000 0.535935 7.951373 0.000000 1.000000 0.000000 0.000055 0.000054
3.000000 0.217713 3.000000 0.000000 1.000000 0.000000 0.000089 0.999910
8.000000 0.217713 3.000000 0.000000 1.000000 0.000000 0.000089 0.000089
8.000000 0.217713 -3.000000 0.000000 1.000000 0.000000 0.799946 0.000089
3.000000 0.217713 -3.000000 0.000000 1.000000 0.000000 0.799946 0.999911
8.000000 0.217713 -3.000000 -0.000000 0.000000 1.000000 0.999945 0.000055
8.000000 1.217713 -3.000000 -0.000000 0.000000 1.000000 0.999945 0.300022
3.000000 1.217700 -3.000000 -0.000000 0.000000 1.000000 0.000055 0.300018
3.000000 0.217713 -3.000000 -0.000000 0.000000 1.000000 0.000055 0.000055
3.000000 0.217713 3.000000 -0.000000 0.000000 -1.000000 0.000055 0.300024
8.000000 1.217713 3.000000 -0.000000 0.000000 -1.000000 0.999945 0.000055
8.000000 0.217713 3.000000 -0.000000 0.000000 -1.000000 0.999945 0.300022
-3.000000 1.460202 -3.622011 0.000000 0.803895 0.594771 0.150230 0.000054
-4.000000 1.460202 -3.622011 0.000000 0.803895 0.594771 0.150230 0.291188
-4.000000 1.000000 -3.000000 0.000000 0.803895 0.594771 0.000054 0.291188
-3.000000 1.000000 -3.000000 0.000000 0.803895 0.594771 0.000054 0.000054
-3.000000 1.460203 -7.999980 0.000000 1.000000 0.000000 0.999946 0.000054
-4.000000 1.460203 -7.999980 0.000000 1.000000 0.000000 0.999946 0.291188
-4.000000 1.460202 -3.622011 0.000000 1.000000 0.000000 0.150230 0.291188
-3.000000 1.460202 -3.622011 0.000000 1.000000 0.000000 0.150230 0.000054
-3.000000 1.000000 3.000000 0.000000 0.898776 0.438409 0.999945 0.000054
-4.000000 1.000000 3.000000 0.000000 0.898776 0.438409 0.999946 0.296552
-4.000000 0.535935 3.951373 0.000000 0.898776 0.438409 0.790713 0.296552
-3.000000 0.535935 3.951373 0.000000 0.898776 0.438409 0.790713 0.000055
-3.000000 1.000000 -3.000000 0.000000 1.000000 0.000000 0.999950 0.000050
-4.000000 1.000000 -3.000000 0.000000 1.000000 0.000000 0.999950 0.250025
-4.000000 1.000000 3.000000 0.000000 1.000000 0.000000 0.000050 0.250025
-3.000000 1.000000 3.000000 0.000000 1.000000 0.000000 0.000050 0.000051
5.000000 1.217700 3.951373 -0.000000 1.000000 0.000014 0.000063 0.000061
8.000000 1.217713 3.000000 -0.000000 1.000000 0.000014 0.749967 0.356782
4.999990 1.217713 3.000000 -0.000000 1.000000 0.000014 0.000060 0.356781
8.999990 1.217713 3.000000 -0.000000 1.000000 0.000014 0.999938 0.356781
9.000000 1.217700 3.951373 0.000000 1.000000 0.000014 0.999940 0.000060
5.000000 1.217700 3.951373 -0.447215 0.894426 0.000017 0.197591 0.999952
4.999990 1.217713 3.000000 -0.447215 0.894426 0.000017 0.000048 0.962144
3.000000 0.217713 3.000000 -0.447215 0.894426 0.000017 0.007511 0.260144
3.000000 0.535935 3.951373 -0.307603 0.902373 -0.301833 0.214875 0.309795
5.000000 1.217700 3.951373 -0.307603 0.902373 -0.301833 0.197591 0.999952
3.000000 0.217713 3.000000 -0.307603 0.902373 -0.301833 0.007511 0.260144
3.000000 0.535935 3.951373 0.000000 0.000000 1.000000 0.214875 0.309795
4.000000 0.535935 3.951373 0.000000 0.000000 1.000000 0.229656 0.622995
5.000000 1.217700 3.951373 0.000000 0.000000 1.000000 0.197591 0.999952
3.000000 0.535935 7.951373 0.000000 1.000000 0.000000 0.000061 0.375015
4.000000 0.535935 7.951373 0.000000 1.000000 0.000000 0.000061 0.000061
4.000000 0.535935 3.951373 0.000000 1.000000 0.000000 0.999939 0.000061
3.000000 0.535935 3.951373 0.000000 1.000000 0.000000 0.999939 0.375015
4.999990 1.217713 3.000000 0.000000 0.000000 -1.000000 0.400009 0.000056
8.999990 1.217713 3.000000 0.000000 1.000000 0.000000 0.000050 0.000053
9.000000 1.217713 -3.000000 0.000000 1.000000 0.000000 0.999950 0.000050
8.000000 1.217713 -3.000000 0.000000 1.000000 0.000000 0.999950 0.250025
8.000000 1.217713 3.000000 0.000000 1.000000 0.000000 0.000050 0.250025
9.000000 1.217713 -3.000000 0.000000 1.000000 0.000000 0.999950 0.000626
9.000000 1.217713 -4.000000 0.000000 1.000000 0.000000 0.999949 0.250506
8.000000 1.217713 -4.000000 0.000000 1.000000 0.000000 0.833363 0.250505
8.000000 1.217713 -3.000000 0.000000 1.000000 0.000000 0.833364 0.000625
3.000000 1.338951 -3.999990 0.060071 0.990936 0.120153 0.000050 0.251757
3.000000 1.217700 -3.000000 0.060071 0.990936 0.120153 0.000431 0.000050
3.999990 1.278332 -3.999995 0.060071 0.990936 0.120153 0.166939 0.250503
3.000000 1.217700 -3.000000 0.015110 0.997027 0.075562 0.000431 0.000050
8.000000 1.217713 -4.000000 0.015110 0.997027 0.075562 0.833363 0.250505
3.999990 1.278332 -3.999995 0.015110 0.997027 0.075562 0.166939 0.250503
3.000000 1.217700 -3.000000 -0.000003 1.000000 0.000000 0.000431 0.000050
8.000000 1.217713 -3.000000 -0.000003 1.000000 0.000000 0.833364 0.000625
8.000000 1.217713 -4.000000 -0.000003 1.000000 0.000000 0.833363 0.250505
3.999990 1.278332 -3.999995 0.060509 0.998168 0.000000 0.000063 0.000061
3.999990 1.278332 -7.999995 0.060509 0.998168 0.000000 0.999939 0.000061
3.000000 1.338952 -7.999990 0.060509 0.998168 0.000000 0.999937 0.375699
3.000000 1.338951 -3.999990 0.060509 0.998168 0.000000 0.000061 0.375699
8.000000 0.217713 3.000000 -1.000000 0.000000 0.000000 0.000050 0.250025
8.000000 1.217713 3.000000 -1.000000 0.000000 0.000000 0.000050 0.000050
8.000000 1.217713 -3.000000 -1.000000 0.000000 0.000000 0.999950 0.000050
8.000000 0.217713 -3.000000 -1.000000 0.000000 0.000000 0.999950 0.250024
4 0 1 2 3
4 4 5 6 7
4 8 9 10 11
4 12 13 14 15
4 16 17 18 19
4 20 21 22 23
4 24 25 26 27
4 28 29 30 31
3 32 33 34
3 30 32 34
3 31 30 34
4 35 36 37 38
4 39 40 41 42
4 43 44 45 46
4 47 48 44 43
4 49 50 40 39
4 51 52 53 54
4 55 56 57 58
4 59 60 61 62
4 63 64 65 66
3 67 68 69
4 70 71 72 73
4 74 75 76 77
4 78 79 80 81
4 82 83 84 85
3 86 87 88
3 86 89 87
3 86 90 89
3 91 92 93
3 94 95 96
3 97 98 99
4 100 101 102 103
3 104 68 67
4 105 106 107 108
4 109 110 111 112
3 113 114 115
3 116 117 118
3 119 120 121
4 122 123 124 125
4 126 127 128 129
