ply
format ascii 1.0
comment Created by Blender 2.69 (sub 0) - www.blender.org, source file: ''
element vertex 439
property float x
property float y
property float z
property float nx
property float ny
property float nz
property float s
property float t
element face 760
property list uchar uint vertex_indices
end_header
-0.164109 0.225876 -0.384283 -0.348460 0.479629 -0.805292 0.049988 0.200195
-0.066638 0.205091 -0.423228 -0.142186 0.437635 -0.887814 0.000031 0.150391
-0.126753 0.174461 -0.423228 -0.270455 0.372265 -0.887814 0.049988 0.150391
-0.045359 0.139599 -0.451752 -0.097659 0.300607 -0.948729 0.000031 0.100098
-0.086277 0.118750 -0.451752 -0.185766 0.255684 -0.948729 0.049988 0.100098
-0.022962 0.070670 -0.469152 -0.050691 0.156011 -0.986419 0.000031 0.050293
-0.043676 0.060115 -0.469152 -0.096408 0.132725 -0.986419 0.049988 0.050293
-0.060115 0.043676 -0.469152 -0.132725 0.096408 -0.986419 0.099976 0.050293
0.000000 0.000000 -0.475000 0.000000 0.000000 -1.000000 0.074951 0.000000
-0.310892 0.225876 -0.279198 -0.656667 0.477096 -0.584063 0.099976 0.300293
-0.225876 0.310892 -0.279198 -0.477096 0.656667 -0.584063 0.049988 0.300293
-0.197423 0.271729 -0.335876 -0.417890 0.575182 -0.703207 0.049988 0.250000
-0.271729 0.197423 -0.335876 -0.575182 0.417890 -0.703207 0.099976 0.250000
-0.225876 0.164109 -0.384283 -0.479629 0.348460 -0.805292 0.099976 0.200195
-0.174461 0.126753 -0.423228 -0.372265 0.270455 -0.887814 0.099976 0.150391
-0.118750 0.086277 -0.451752 -0.255684 0.185766 -0.948729 0.099976 0.100098
-0.139599 0.045358 -0.451752 -0.300607 0.097659 -0.948729 0.149902 0.100098
-0.146783 0.000000 -0.451752 -0.316050 0.000000 -0.948729 0.199951 0.100098
-0.205091 -0.066638 -0.423228 -0.437635 -0.142186 -0.887814 0.250000 0.150391
-0.215646 0.000000 -0.423228 -0.460158 0.000000 -0.887814 0.199951 0.150391
-0.070670 0.022962 -0.469152 -0.156011 0.050691 -0.986419 0.149902 0.050293
-0.103791 -0.319437 -0.335876 -0.219703 -0.676168 -0.703207 0.399902 0.250000
-0.164108 -0.225876 -0.384283 -0.348460 -0.479629 -0.805292 0.349854 0.200195
-0.086277 -0.265533 -0.384283 -0.183203 -0.563829 -0.805292 0.399902 0.200195
-0.197423 -0.271729 -0.335876 -0.417890 -0.575182 -0.703207 0.349854 0.250000
-0.225876 -0.164108 -0.384283 -0.479629 -0.348460 -0.805292 0.299805 0.200195
-0.174461 -0.126753 -0.423228 -0.372265 -0.270455 -0.887814 0.299805 0.150391
-0.139599 -0.045358 -0.451752 -0.300607 -0.097659 -0.948729 0.250000 0.100098
-0.074306 0.000000 -0.469152 -0.164037 0.000000 -0.986419 0.199951 0.050293
-0.118750 -0.086277 -0.451752 -0.255684 -0.185766 -0.948729 0.299805 0.100098
-0.126753 -0.174461 -0.423228 -0.270455 -0.372265 -0.887814 0.349854 0.150391
-0.070670 -0.022962 -0.469152 -0.156011 -0.050691 -0.986419 0.250000 0.050293
-0.060115 -0.043676 -0.469152 -0.132725 -0.096408 -0.986419 0.299805 0.050293
-0.086277 -0.118750 -0.451752 -0.185766 -0.255684 -0.948729 0.349854 0.100098
-0.066638 -0.205091 -0.423228 -0.142186 -0.437635 -0.887814 0.399902 0.150391
-0.045358 -0.139599 -0.451752 -0.097659 -0.300607 -0.948729 0.399902 0.100098
-0.022962 -0.070670 -0.469152 -0.050691 -0.156011 -0.986419 0.399902 0.050293
-0.043676 -0.060115 -0.469152 -0.096408 -0.132725 -0.986419 0.349854 0.050293
0.000000 -0.146783 -0.451752 0.000000 -0.316050 -0.948729 0.449951 0.100098
0.000000 -0.074306 -0.469152 0.000000 -0.164037 -0.986419 0.449951 0.050293
0.000000 -0.215645 -0.423228 0.000000 -0.460158 -0.887814 0.449951 0.150391
0.000000 -0.279198 -0.384283 0.000000 -0.592853 -0.805292 0.449951 0.200195
0.022962 -0.070670 -0.469152 0.050691 -0.156011 -0.986419 0.500000 0.050293
0.045358 -0.139599 -0.451752 0.097659 -0.300607 -0.948729 0.500000 0.100098
0.066638 -0.205091 -0.423228 0.142186 -0.437635 -0.887814 0.500000 0.150391
0.086277 -0.265533 -0.384283 0.183203 -0.563829 -0.805292 0.500000 0.200195
0.000000 -0.335876 -0.335876 0.000000 -0.710959 -0.703207 0.449951 0.250000
0.086277 -0.118750 -0.451752 0.185766 -0.255684 -0.948729 0.549805 0.100098
0.043676 -0.060115 -0.469152 0.096408 -0.132725 -0.986419 0.549805 0.050293
0.126753 -0.174461 -0.423228 0.270455 -0.372265 -0.887814 0.549805 0.150391
0.164108 -0.225876 -0.384283 0.348460 -0.479629 -0.805292 0.549805 0.200195
0.103791 -0.319437 -0.335876 0.219703 -0.676168 -0.703207 0.500000 0.250000
0.000000 -0.384283 -0.279198 0.000000 -0.811670 -0.584063 0.449951 0.300293
0.225876 -0.164108 -0.384283 0.479629 -0.348460 -0.805292 0.599609 0.200195
0.205091 0.066638 -0.423228 0.437635 0.142186 -0.887814 0.750000 0.150391
0.215645 0.000000 -0.423228 0.460158 0.000000 -0.887814 0.699707 0.150391
0.146783 0.000000 -0.451752 0.316050 0.000000 -0.948729 0.699707 0.100098
0.139599 -0.045358 -0.451752 0.300607 -0.097659 -0.948729 0.649902 0.100098
0.205091 -0.066638 -0.423228 0.437635 -0.142186 -0.887814 0.649902 0.150391
0.174461 -0.126753 -0.423228 0.372265 -0.270455 -0.887814 0.599609 0.150391
0.118750 -0.086277 -0.451752 0.255684 -0.185766 -0.948729 0.599609 0.100098
0.060115 -0.043676 -0.469152 0.132725 -0.096408 -0.986419 0.599609 0.050293
0.070670 -0.022962 -0.469152 0.156011 -0.050691 -0.986419 0.649902 0.050293
0.074306 0.000000 -0.469152 0.164037 0.000000 -0.986419 0.699707 0.050293
0.139599 0.045358 -0.451752 0.300607 0.097659 -0.948729 0.750000 0.100098
0.118750 0.086277 -0.451752 0.255684 0.185766 -0.948729 0.799805 0.100098
0.174461 0.126753 -0.423228 0.372265 0.270455 -0.887814 0.799805 0.150391
0.126753 0.174461 -0.423228 0.270455 0.372265 -0.887814 0.849609 0.150391
0.086277 0.118750 -0.451752 0.185766 0.255684 -0.948729 0.849609 0.100098
0.045358 0.139599 -0.451752 0.097659 0.300607 -0.948729 0.899902 0.100098
0.022962 0.070670 -0.469152 0.050691 0.156011 -0.986419 0.899902 0.050293
0.000000 0.146783 -0.451752 0.000000 0.316050 -0.948729 0.949707 0.100098
0.000000 0.074306 -0.469152 0.000000 0.164037 -0.986419 0.949707 0.050293
0.000000 0.215645 -0.423228 0.000000 0.460158 -0.887814 0.949707 0.150391
0.066638 0.205091 -0.423228 0.142186 0.437635 -0.887814 0.899902 0.150391
0.164108 0.225876 -0.384283 0.348460 0.479629 -0.805292 0.849609 0.200195
0.225876 0.164108 -0.384283 0.479629 0.348460 -0.805292 0.799805 0.200195
0.000000 0.279198 -0.384283 0.000000 0.592853 -0.805292 0.949707 0.200195
0.086277 0.265533 -0.384283 0.183203 0.563829 -0.805292 0.899902 0.200195
0.197423 0.271729 -0.335876 0.417890 0.575182 -0.703207 0.849609 0.250000
0.271729 0.197423 -0.335876 0.575182 0.417890 -0.703207 0.799805 0.250000
0.319437 0.103791 -0.335876 0.676168 0.219703 -0.703207 0.750000 0.250000
0.365475 0.118750 -0.279198 0.771935 0.250801 -0.584063 0.750000 0.300293
0.103791 0.319437 -0.335876 0.219703 0.676168 -0.703207 0.899902 0.250000
0.118750 0.365475 -0.279198 0.250801 0.771935 -0.584063 0.899902 0.300293
0.225876 0.310891 -0.279198 0.477096 0.656667 -0.584063 0.849609 0.300293
0.310891 0.225876 -0.279198 0.656667 0.477096 -0.584063 0.799805 0.300293
0.402514 0.130785 -0.215645 0.848903 0.275826 -0.450850 0.750000 0.350098
0.423228 0.000000 -0.215645 0.892575 0.000000 -0.450850 0.699707 0.350098
0.451752 0.000000 -0.146783 0.951781 0.000000 -0.306742 0.699707 0.400391
0.402514 -0.130785 -0.215645 0.848903 -0.275826 -0.450850 0.649902 0.350098
0.429642 -0.139599 -0.146783 0.905179 -0.294107 -0.306742 0.649902 0.400391
0.130785 0.402514 -0.215645 0.275826 0.848903 -0.450850 0.899902 0.350098
0.469152 0.000000 -0.074306 0.987854 0.000000 -0.155217 0.699707 0.450195
0.429641 0.139599 -0.146783 0.905179 0.294107 -0.306742 0.750000 0.400391
0.342399 0.248767 -0.215645 0.722098 0.524644 -0.450850 0.799805 0.350098
0.248767 0.342399 -0.215645 0.524644 0.722098 -0.450850 0.849609 0.350098
0.139599 0.429641 -0.146783 0.294107 0.905179 -0.306742 0.899902 0.400391
0.000000 0.451752 -0.146783 0.000000 0.951781 -0.306742 0.949707 0.400391
0.365475 0.265533 -0.146783 0.770012 0.559435 -0.306742 0.799805 0.400391
0.265533 0.365475 -0.146783 0.559435 0.770012 -0.306742 0.849609 0.400391
0.144976 0.446190 -0.074306 0.305246 0.939512 -0.155217 0.899902 0.450195
0.275761 0.379552 -0.074306 0.580645 0.799188 -0.155217 0.849609 0.450195
0.146783 0.451752 0.000000 0.309000 0.951048 0.000000 0.899902 0.500244
0.446190 0.144976 -0.074306 0.939512 0.305246 -0.155217 0.750000 0.450195
0.379552 0.275761 -0.074306 0.799188 0.580645 -0.155217 0.799805 0.450195
0.475000 0.000000 0.000000 1.000000 0.000000 0.000000 0.699707 0.500244
0.446190 -0.144976 -0.074306 0.939512 -0.305246 -0.155217 0.649902 0.450195
0.451752 0.146783 0.000000 0.951048 0.309000 0.000000 0.750000 0.500244
0.384283 0.279198 0.000000 0.809015 0.587756 0.000000 0.799805 0.500244
0.279198 0.384283 0.000000 0.587756 0.809015 0.000000 0.849609 0.500244
0.275761 0.379552 0.074306 0.580645 0.799188 0.155217 0.849609 0.550049
0.379552 0.275761 0.074306 0.799188 0.580645 0.155217 0.799805 0.550049
0.446190 0.144976 0.074306 0.939512 0.305246 0.155217 0.750000 0.550049
0.469152 -0.000000 0.074306 0.987854 0.000000 0.155217 0.699707 0.550049
0.446190 -0.144976 0.074306 0.939512 -0.305246 0.155217 0.649902 0.550049
0.451752 -0.146783 -0.000000 0.951048 -0.309000 0.000000 0.649902 0.500244
0.379552 -0.275761 0.074306 0.799188 -0.580645 0.155217 0.599609 0.550049
0.384283 -0.279198 -0.000000 0.809015 -0.587756 0.000000 0.599609 0.500244
0.275761 -0.379552 0.074306 0.580645 -0.799188 0.155217 0.549805 0.550049
0.429641 0.139599 0.146783 0.905179 0.294107 0.306742 0.750000 0.600098
0.365475 0.265533 0.146783 0.770012 0.559435 0.306742 0.799805 0.600098
0.342399 0.248767 0.215645 0.722098 0.524644 0.450850 0.799805 0.650146
0.402514 0.130785 0.215645 0.848903 0.275826 0.450850 0.750000 0.650146
0.451752 -0.000000 0.146783 0.951781 0.000000 0.306742 0.699707 0.600098
0.429642 -0.139599 0.146783 0.905179 -0.294107 0.306742 0.649902 0.600098
0.365475 -0.265533 0.146783 0.770012 -0.559435 0.306742 0.599609 0.600098
0.265533 -0.365475 0.146783 0.559435 -0.770012 0.306742 0.549805 0.600098
0.144976 -0.446190 0.074306 0.305246 -0.939512 0.155217 0.500000 0.550049
0.000000 -0.475000 -0.000000 0.000000 -1.000000 0.000000 0.449951 0.500244
-0.144976 -0.446190 0.074306 -0.305246 -0.939512 0.155217 0.399902 0.550049
-0.146783 -0.451752 -0.000000 -0.309000 -0.951048 0.000000 0.399902 0.500244
0.000000 -0.469152 0.074306 0.000000 -0.987854 0.155217 0.449951 0.550049
0.139599 -0.429642 0.146783 0.294107 -0.905179 0.306742 0.500000 0.600098
0.248767 -0.342399 0.215645 0.524644 -0.722098 0.450850 0.549805 0.650146
0.342399 -0.248767 0.215645 0.722098 -0.524644 0.450850 0.599609 0.650146
0.402514 -0.130785 0.215645 0.848903 -0.275826 0.450850 0.649902 0.650146
0.000000 -0.451752 0.146783 0.000000 -0.951781 0.306742 0.449951 0.600098
0.130785 -0.402514 0.215645 0.275826 -0.848903 0.450850 0.500000 0.650146
0.225876 -0.310892 0.279198 0.477096 -0.656667 0.584063 0.549805 0.700195
0.310891 -0.225876 0.279198 0.656667 -0.477096 0.584063 0.599609 0.700195
0.365475 -0.118750 0.279198 0.771935 -0.250801 0.584063 0.649902 0.700195
0.423228 -0.000000 0.215645 0.892575 0.000000 0.450850 0.699707 0.650146
0.384283 -0.000000 0.279198 0.811670 0.000000 0.584063 0.699707 0.700195
0.000000 -0.423228 0.215645 0.000000 -0.892575 0.450850 0.449951 0.650146
0.118750 -0.365475 0.279198 0.250801 -0.771935 0.584063 0.500000 0.700195
0.197423 -0.271729 0.335876 0.417890 -0.575182 0.703207 0.549805 0.750122
0.271729 -0.197423 0.335876 0.575182 -0.417890 0.703207 0.599609 0.750122
0.319437 -0.103791 0.335876 0.676168 -0.219703 0.703207 0.649902 0.750122
0.335876 -0.000000 0.335876 0.710959 0.000000 0.703207 0.699707 0.750122
0.265533 -0.086277 0.384283 0.563829 -0.183203 0.805292 0.649902 0.800049
0.279198 -0.000000 0.384283 0.592853 0.000000 0.805292 0.699707 0.800049
0.265533 0.086277 0.384283 0.563829 0.183203 0.805292 0.750000 0.800049
0.225876 -0.164108 0.384283 0.479629 -0.348460 0.805292 0.599609 0.800049
0.205091 -0.066638 0.423228 0.437635 -0.142186 0.887814 0.649902 0.850098
0.215645 -0.000000 0.423228 0.460158 0.000000 0.887814 0.699707 0.850098
0.205091 0.066638 0.423228 0.437635 0.142186 0.887814 0.750000 0.850098
0.146783 -0.000000 0.451752 0.316050 0.000000 0.948729 0.699707 0.900024
0.139599 0.045358 0.451752 0.300607 0.097659 0.948729 0.750000 0.900024
0.139599 -0.045358 0.451752 0.300607 -0.097659 0.948729 0.649902 0.900024
0.174461 -0.126753 0.423228 0.372265 -0.270455 0.887814 0.599609 0.850098
0.118750 -0.086277 0.451752 0.255684 -0.185766 0.948729 0.599609 0.900024
0.074306 -0.000000 0.469152 0.164037 0.000000 0.986419 0.699707 0.950012
0.070670 0.022962 0.469152 0.156011 0.050691 0.986419 0.750000 0.950012
0.070670 -0.022962 0.469152 0.156011 -0.050691 0.986419 0.649902 0.950012
0.060115 -0.043676 0.469152 0.132725 -0.096408 0.986419 0.599609 0.950012
0.086277 -0.118750 0.451752 0.185766 -0.255684 0.948729 0.549805 0.900024
0.126753 -0.174461 0.423228 0.270455 -0.372265 0.887814 0.549805 0.850098
0.000000 -0.000000 0.475000 0.000000 0.000000 1.000000 0.625000 0.999969
0.043676 -0.060115 0.469152 0.096408 -0.132725 0.986419 0.549805 0.950012
0.086277 -0.265533 0.384283 0.183203 -0.563829 0.805292 0.500000 0.800049
0.164108 -0.225876 0.384283 0.348460 -0.479629 0.805292 0.549805 0.800049
0.066638 -0.205091 0.423228 0.142186 -0.437635 0.887814 0.500000 0.850098
0.045358 -0.139599 0.451752 0.097659 -0.300607 0.948729 0.500000 0.900024
0.022962 -0.070670 0.469152 0.050691 -0.156011 0.986419 0.500000 0.950012
0.000000 -0.074306 0.469152 0.000000 -0.164068 0.986419 0.449951 0.950012
0.000000 -0.146783 0.451752 0.000000 -0.316050 0.948729 0.449951 0.900024
0.000000 -0.215646 0.423228 0.000000 -0.460158 0.887814 0.449951 0.850098
-0.045358 -0.139599 0.451752 -0.097659 -0.300607 0.948729 0.399902 0.900024
-0.022962 -0.070670 0.469152 -0.050691 -0.156011 0.986419 0.399902 0.950012
-0.066638 -0.205091 0.423228 -0.142186 -0.437635 0.887814 0.399902 0.850098
-0.126753 -0.174461 0.423228 -0.270455 -0.372265 0.887814 0.349854 0.850098
-0.086277 -0.265533 0.384283 -0.183203 -0.563829 0.805292 0.399902 0.800049
0.000000 -0.279198 0.384283 0.000000 -0.592853 0.805292 0.449951 0.800049
0.000000 -0.335876 0.335876 0.000000 -0.710959 0.703207 0.449951 0.750122
0.103791 -0.319437 0.335876 0.219703 -0.676168 0.703207 0.500000 0.750122
0.000000 -0.384283 0.279198 0.000000 -0.811670 0.584063 0.449951 0.700195
-0.103791 -0.319437 0.335876 -0.219703 -0.676168 0.703207 0.399902 0.750122
-0.118750 -0.365475 0.279198 -0.250801 -0.771935 0.584063 0.399902 0.700195
-0.215646 -0.000000 0.423228 -0.460158 0.000000 0.887814 0.199951 0.850098
-0.265533 -0.086277 0.384283 -0.563829 -0.183203 0.805292 0.250000 0.800049
-0.205091 -0.066638 0.423228 -0.437635 -0.142186 0.887814 0.250000 0.850098
-0.225876 -0.164108 0.384283 -0.479629 -0.348460 0.805292 0.299805 0.800049
-0.174461 -0.126753 0.423228 -0.372265 -0.270455 0.887814 0.299805 0.850098
-0.164108 -0.225876 0.384283 -0.348460 -0.479629 0.805292 0.349854 0.800049
-0.043676 -0.060115 0.469152 -0.096408 -0.132725 0.986419 0.349854 0.950012
-0.086277 -0.118750 0.451752 -0.185766 -0.255684 0.948729 0.349854 0.900024
-0.118750 -0.086277 0.451752 -0.255684 -0.185766 0.948729 0.299805 0.900024
-0.139599 -0.045358 0.451752 -0.300607 -0.097659 0.948729 0.250000 0.900024
-0.146783 -0.000000 0.451752 -0.316050 0.000000 0.948729 0.199951 0.900024
-0.060115 -0.043676 0.469152 -0.132725 -0.096408 0.986419 0.299805 0.950012
-0.022962 0.070670 0.469152 -0.050691 0.156011 0.986419 0.000031 0.950012
-0.086277 0.118750 0.451752 -0.185766 0.255684 0.948729 0.049988 0.900024
-0.043676 0.060115 0.469152 -0.096408 0.132725 0.986419 0.049988 0.950012
-0.060115 0.043676 0.469152 -0.132725 0.096408 0.986419 0.099976 0.950012
-0.118750 0.086277 0.451752 -0.255684 0.185766 0.948729 0.099976 0.900024
-0.139599 0.045358 0.451752 -0.300607 0.097659 0.948729 0.149902 0.900024
-0.070670 0.022962 0.469152 -0.156011 0.050691 0.986419 0.149902 0.950012
-0.074306 -0.000000 0.469152 -0.164037 0.000000 0.986419 0.199951 0.950012
-0.070670 -0.022962 0.469152 -0.156011 -0.050691 0.986419 0.250000 0.950012
-0.205091 0.066638 0.423228 -0.437635 0.142186 0.887814 0.149902 0.850098
-0.174461 0.126753 0.423228 -0.372265 0.270455 0.887814 0.099976 0.850098
-0.126753 0.174461 0.423228 -0.270455 0.372265 0.887814 0.049988 0.850098
-0.118750 0.365475 0.279198 -0.250801 0.771935 0.584063 0.000031 0.700195
-0.225876 0.310892 0.279198 -0.477096 0.656667 0.584063 0.049988 0.700195
-0.197423 0.271729 0.335876 -0.417890 0.575182 0.703207 0.049988 0.750122
-0.310892 0.225876 0.279198 -0.656667 0.477096 0.584063 0.099976 0.700195
-0.342399 0.248767 0.215645 -0.722098 0.524644 0.450850 0.099976 0.650146
-0.402514 0.130785 0.215645 -0.848903 0.275826 0.450850 0.149902 0.650146
-0.130785 0.402514 0.215645 -0.275826 0.848903 0.450850 0.000031 0.650146
-0.248767 0.342399 0.215645 -0.524644 0.722098 0.450850 0.049988 0.650146
-0.451752 -0.000000 0.146783 -0.951781 0.000000 0.306742 0.199951 0.600098
-0.429642 0.139599 0.146783 -0.905179 0.294107 0.306742 0.149902 0.600098
-0.365475 0.265533 0.146783 -0.770012 0.559435 0.306742 0.099976 0.600098
-0.265533 0.365475 0.146783 -0.559435 0.770012 0.306742 0.049988 0.600098
-0.429642 -0.139599 0.146783 -0.905179 -0.294107 0.306742 0.250000 0.600098
-0.469152 -0.000000 0.074306 -0.987854 0.000000 0.155217 0.199951 0.550049
-0.446190 0.144976 0.074306 -0.939512 0.305246 0.155217 0.149902 0.550049
-0.379552 0.275761 0.074306 -0.799188 0.580645 0.155217 0.099976 0.550049
-0.275761 0.379552 0.074306 -0.580645 0.799188 0.155217 0.049988 0.550049
-0.144976 0.446190 0.074306 -0.305246 0.939512 0.155217 0.000031 0.550049
-0.146783 0.451752 0.000000 -0.309000 0.951048 0.000000 0.000031 0.500244
-0.275761 0.379552 -0.074306 -0.580645 0.799188 -0.155217 0.049988 0.450195
-0.279198 0.384283 0.000000 -0.587756 0.809015 0.000000 0.049988 0.500244
-0.384283 0.279198 0.000000 -0.809015 0.587756 0.000000 0.099976 0.500244
-0.451752 0.146783 0.000000 -0.951048 0.309000 0.000000 0.149902 0.500244
-0.475000 0.000000 0.000000 -1.000000 0.000000 0.000000 0.199951 0.500244
-0.379552 0.275761 -0.074306 -0.799188 0.580645 -0.155217 0.099976 0.450195
-0.446190 0.144976 -0.074306 -0.939512 0.305246 -0.155217 0.149902 0.450195
-0.469152 0.000000 -0.074306 -0.987854 0.000000 -0.155217 0.199951 0.450195
-0.446190 -0.144976 -0.074306 -0.939512 -0.305246 -0.155217 0.250000 0.450195
-0.429642 -0.139599 -0.146783 -0.905179 -0.294107 -0.306742 0.250000 0.400391
-0.365475 -0.265533 -0.146783 -0.770012 -0.559435 -0.306742 0.299805 0.400391
-0.342399 -0.248767 -0.215645 -0.722098 -0.524644 -0.450850 0.299805 0.350098
-0.402514 -0.130785 -0.215645 -0.848903 -0.275826 -0.450850 0.250000 0.350098
-0.310892 -0.225876 -0.279198 -0.656667 -0.477096 -0.584063 0.299805 0.300293
-0.451752 0.000000 -0.146783 -0.951781 0.000000 -0.306742 0.199951 0.400391
-0.429642 0.139599 -0.146783 -0.905179 0.294107 -0.306742 0.149902 0.400391
-0.365475 0.265533 -0.146783 -0.770012 0.559435 -0.306742 0.099976 0.400391
-0.265533 0.365475 -0.146783 -0.559435 0.770012 -0.306742 0.049988 0.400391
-0.423228 0.000000 -0.215645 -0.892575 0.000000 -0.450850 0.199951 0.350098
-0.402514 0.130785 -0.215645 -0.848903 0.275826 -0.450850 0.149902 0.350098
-0.342399 0.248767 -0.215645 -0.722098 0.524644 -0.450850 0.099976 0.350098
-0.248767 0.342399 -0.215645 -0.524644 0.722098 -0.450850 0.049988 0.350098
-0.365475 0.118750 -0.279198 -0.771935 0.250801 -0.584063 0.149902 0.300293
-0.319437 0.103791 -0.335876 -0.676168 0.219703 -0.703207 0.149902 0.250000
-0.265533 0.086277 -0.384283 -0.563829 0.183203 -0.805292 0.149902 0.200195
-0.205091 0.066638 -0.423228 -0.437635 0.142186 -0.887814 0.149902 0.150391
-0.384283 0.000000 -0.279198 -0.811670 0.000000 -0.584063 0.199951 0.300293
-0.335876 0.000000 -0.335876 -0.710959 0.000000 -0.703207 0.199951 0.250000
-0.279198 0.000000 -0.384283 -0.592853 0.000000 -0.805292 0.199951 0.200195
-0.265533 -0.086277 -0.384283 -0.563829 -0.183203 -0.805292 0.250000 0.200195
-0.319437 -0.103791 -0.335876 -0.676168 -0.219703 -0.703207 0.250000 0.250000
-0.365475 -0.118750 -0.279198 -0.771935 -0.250801 -0.584063 0.250000 0.300293
-0.271729 -0.197423 -0.335876 -0.575182 -0.417890 -0.703207 0.299805 0.250000
-0.118750 -0.365475 -0.279198 -0.250801 -0.771935 -0.584063 0.399902 0.300293
-0.225876 -0.310892 -0.279198 -0.477096 -0.656667 -0.584063 0.349854 0.300293
0.197423 -0.271729 -0.335876 0.417890 -0.575182 -0.703207 0.549805 0.250000
0.118750 -0.365475 -0.279198 0.250801 -0.771935 -0.584063 0.500000 0.300293
0.000000 -0.423228 -0.215645 0.000000 -0.892575 -0.450850 0.449951 0.350098
-0.130785 -0.402514 -0.215645 -0.275826 -0.848903 -0.450850 0.399902 0.350098
-0.248767 -0.342399 -0.215645 -0.524644 -0.722098 -0.450850 0.349854 0.350098
-0.265533 -0.365475 -0.146783 -0.559435 -0.770012 -0.306742 0.349854 0.400391
-0.139599 -0.429642 -0.146783 -0.294107 -0.905179 -0.306742 0.399902 0.400391
0.000000 -0.451752 -0.146783 0.000000 -0.951781 -0.306742 0.449951 0.400391
0.130785 -0.402514 -0.215645 0.275826 -0.848903 -0.450850 0.500000 0.350098
0.225876 -0.310892 -0.279198 0.477096 -0.656667 -0.584063 0.549805 0.300293
0.139599 -0.429642 -0.146783 0.294107 -0.905179 -0.306742 0.500000 0.400391
0.000000 -0.469152 -0.074306 0.000000 -0.987854 -0.155217 0.449951 0.450195
-0.144976 -0.446190 -0.074306 -0.305246 -0.939512 -0.155217 0.399902 0.450195
-0.275761 -0.379552 -0.074306 -0.580645 -0.799188 -0.155217 0.349854 0.450195
-0.379552 -0.275761 -0.074306 -0.799188 -0.580645 -0.155217 0.299805 0.450195
-0.451752 -0.146783 -0.000000 -0.951048 -0.309000 0.000000 0.250000 0.500244
-0.279198 -0.384283 -0.000000 -0.587756 -0.809015 0.000000 0.349854 0.500244
-0.384283 -0.279198 -0.000000 -0.809015 -0.587756 0.000000 0.299805 0.500244
-0.379552 -0.275761 0.074306 -0.799188 -0.580645 0.155217 0.299805 0.550049
-0.275761 -0.379552 0.074306 -0.580645 -0.799188 0.155217 0.349854 0.550049
-0.446190 -0.144976 0.074306 -0.939512 -0.305246 0.155217 0.250000 0.550049
-0.365475 -0.265533 0.146783 -0.770012 -0.559435 0.306742 0.299805 0.600098
-0.265533 -0.365475 0.146783 -0.559435 -0.770012 0.306742 0.349854 0.600098
-0.139599 -0.429642 0.146783 -0.294107 -0.905179 0.306742 0.399902 0.600098
-0.342399 -0.248767 0.215645 -0.722098 -0.524644 0.450850 0.299805 0.650146
-0.248767 -0.342399 0.215645 -0.524644 -0.722098 0.450850 0.349854 0.650146
-0.130785 -0.402514 0.215645 -0.275826 -0.848903 0.450850 0.399902 0.650146
-0.310892 -0.225876 0.279198 -0.656667 -0.477096 0.584063 0.299805 0.700195
-0.225876 -0.310892 0.279198 -0.477096 -0.656667 0.584063 0.349854 0.700195
-0.197423 -0.271729 0.335876 -0.417890 -0.575182 0.703207 0.349854 0.750122
-0.271729 -0.197423 0.335876 -0.575182 -0.417890 0.703207 0.299805 0.750122
-0.365475 -0.118750 0.279198 -0.771935 -0.250801 0.584063 0.250000 0.700195
-0.402514 -0.130785 0.215645 -0.848903 -0.275826 0.450850 0.250000 0.650146
-0.423228 -0.000000 0.215645 -0.892575 0.000000 0.450850 0.199951 0.650146
-0.384283 -0.000000 0.279198 -0.811670 0.000000 0.584063 0.199951 0.700195
-0.365475 0.118750 0.279198 -0.771935 0.250801 0.584063 0.149902 0.700195
-0.319437 0.103791 0.335876 -0.676168 0.219703 0.703207 0.149902 0.750122
-0.335876 -0.000000 0.335876 -0.710959 0.000000 0.703207 0.199951 0.750122
-0.279198 -0.000000 0.384283 -0.592853 0.000000 0.805292 0.199951 0.800049
-0.319437 -0.103791 0.335876 -0.676168 -0.219703 0.703207 0.250000 0.750122
-0.265533 0.086277 0.384283 -0.563829 0.183203 0.805292 0.149902 0.800049
-0.225876 0.164109 0.384283 -0.479629 0.348460 0.805292 0.099976 0.800049
-0.271729 0.197423 0.335876 -0.575182 0.417890 0.703207 0.099976 0.750122
-0.164108 0.225876 0.384283 -0.348460 0.479629 0.805292 0.049988 0.800049
0.126753 0.174461 0.423228 0.270455 0.372265 0.887814 0.849609 0.850098
0.118750 0.086277 0.451752 0.255684 0.185766 0.948729 0.799805 0.900024
0.174461 0.126753 0.423228 0.372265 0.270455 0.887814 0.799805 0.850098
0.086277 0.118750 0.451752 0.185766 0.255684 0.948729 0.849609 0.900024
0.045358 0.139599 0.451752 0.097659 0.300607 0.948729 0.899902 0.900024
0.043676 0.060115 0.469152 0.096408 0.132725 0.986419 0.849609 0.950012
0.022962 0.070670 0.469152 0.050691 0.156011 0.986419 0.899902 0.950012
0.060115 0.043676 0.469152 0.132725 0.096408 0.986419 0.799805 0.950012
0.000000 0.074306 0.469152 0.000000 0.164037 0.986419 0.949707 0.950012
0.000000 0.146783 0.451752 0.000000 0.316050 0.948729 0.949707 0.900024
0.000000 0.215645 0.423228 0.000000 0.460158 0.887814 0.949707 0.850098
0.066638 0.205091 0.423228 0.142186 0.437635 0.887814 0.899902 0.850098
0.164108 0.225876 0.384283 0.348460 0.479629 0.805292 0.849609 0.800049
0.225876 0.164108 0.384283 0.479629 0.348460 0.805292 0.799805 0.800049
0.000000 0.279198 0.384283 0.000000 0.592853 0.805292 0.949707 0.800049
-0.066638 0.205091 0.423228 -0.142186 0.437635 0.887814 1.000000 0.850098
-0.045358 0.139599 0.451752 -0.097659 0.300607 0.948729 1.000000 0.900024
0.365475 0.118750 0.279198 0.771935 0.250801 0.584063 0.750000 0.700195
0.319437 0.103791 0.335876 0.676168 0.219703 0.703207 0.750000 0.750122
0.271729 0.197423 0.335876 0.575182 0.417890 0.703207 0.799805 0.750122
0.197423 0.271729 0.335876 0.417890 0.575182 0.703207 0.849609 0.750122
0.086277 0.265533 0.384283 0.183203 0.563829 0.805292 0.899902 0.800049
0.118750 0.365475 0.279198 0.250801 0.771935 0.584063 0.899902 0.700195
0.000000 0.423228 0.215645 0.000000 0.892575 0.450850 0.949707 0.650146
0.000000 0.384283 0.279198 0.000000 0.811670 0.584063 0.949707 0.700195
0.103791 0.319437 0.335876 0.219703 0.676168 0.703207 0.899902 0.750122
0.000000 0.335876 0.335876 0.000000 0.710959 0.703207 0.949707 0.750122
-0.086277 0.265533 0.384283 -0.183203 0.563829 0.805292 1.000000 0.800049
-0.103791 0.319437 0.335876 -0.219703 0.676168 0.703207 1.000000 0.750122
0.310891 0.225876 0.279198 0.656667 0.477096 0.584063 0.799805 0.700195
0.225876 0.310891 0.279198 0.477096 0.656667 0.584063 0.849609 0.700195
0.130785 0.402514 0.215645 0.275826 0.848903 0.450850 0.899902 0.650146
0.144976 0.446190 0.074306 0.305246 0.939512 0.155217 0.899902 0.550049
0.000000 0.475000 0.000000 0.000000 1.000000 0.000000 0.949707 0.500244
0.000000 0.469152 0.074306 0.000000 0.987854 0.155217 0.949707 0.550049
0.139599 0.429641 0.146783 0.294107 0.905179 0.306742 0.899902 0.600098
0.000000 0.451752 0.146783 0.000000 0.951781 0.306742 0.949707 0.600098
0.248767 0.342398 0.215645 0.524644 0.722098 0.450850 0.849609 0.650146
0.265533 0.365475 0.146783 0.559435 0.770012 0.306742 0.849609 0.600098
-0.139599 0.429642 0.146783 -0.294107 0.905179 0.306742 1.000000 0.600098
-0.144976 0.446190 -0.074306 -0.305246 0.939512 -0.155217 1.000000 0.450195
0.000000 0.469152 -0.074306 0.000000 0.987854 -0.155217 0.949707 0.450195
-0.130785 0.402514 -0.215645 -0.275826 0.848903 -0.450850 1.000000 0.350098
0.000000 0.423228 -0.215645 0.000000 0.892575 -0.450850 0.949707 0.350098
-0.103791 0.319437 -0.335876 -0.219703 0.676168 -0.703207 1.000000 0.250000
0.000000 0.384283 -0.279198 0.000000 0.811670 -0.584063 0.949707 0.300293
0.000000 0.335876 -0.335876 0.000000 0.710959 -0.703207 0.949707 0.250000
-0.086277 0.265533 -0.384283 -0.183203 0.563829 -0.805292 1.000000 0.200195
0.070670 0.022962 -0.469152 0.156011 0.050691 -0.986419 0.750000 0.050293
0.060115 0.043676 -0.469152 0.132725 0.096408 -0.986419 0.799805 0.050293
0.043676 0.060115 -0.469152 0.096408 0.132725 -0.986419 0.849609 0.050293
0.271729 -0.197423 -0.335876 0.575182 -0.417890 -0.703207 0.599609 0.250000
0.265533 -0.086277 -0.384283 0.563829 -0.183203 -0.805292 0.649902 0.200195
0.319437 -0.103791 -0.335876 0.676168 -0.219703 -0.703207 0.649902 0.250000
0.335876 0.000000 -0.335876 0.710959 0.000000 -0.703207 0.699707 0.250000
0.279198 0.000000 -0.384283 0.592853 0.000000 -0.805292 0.699707 0.200195
0.310891 -0.225876 -0.279198 0.656667 -0.477096 -0.584063 0.599609 0.300293
0.365475 -0.118750 -0.279198 0.771935 -0.250801 -0.584063 0.649902 0.300293
0.384283 0.000000 -0.279198 0.811670 0.000000 -0.584063 0.699707 0.300293
0.265533 0.086277 -0.384283 0.563829 0.183203 -0.805292 0.750000 0.200195
0.342399 -0.248767 -0.215645 0.722098 -0.524644 -0.450850 0.599609 0.350098
0.248767 -0.342399 -0.215645 0.524644 -0.722098 -0.450850 0.549805 0.350098
0.365475 -0.265533 -0.146783 0.770012 -0.559435 -0.306742 0.599609 0.400391
0.265533 -0.365475 -0.146783 0.559435 -0.770012 -0.306742 0.549805 0.400391
0.144976 -0.446190 -0.074306 0.305246 -0.939512 -0.155217 0.500000 0.450195
0.146783 -0.451752 -0.000000 0.309000 -0.951048 0.000000 0.500000 0.500244
0.275761 -0.379552 -0.074306 0.580645 -0.799188 -0.155217 0.549805 0.450195
0.379552 -0.275761 -0.074306 0.799188 -0.580645 -0.155217 0.599609 0.450195
0.279198 -0.384283 -0.000000 0.587756 -0.809015 0.000000 0.549805 0.500244
-0.139599 0.429642 -0.146783 -0.294107 0.905179 -0.306742 0.000031 0.400391
-0.118750 0.365475 -0.279198 -0.250801 0.771935 -0.584063 0.000031 0.300293
0.000000 0.000000 -0.475000 0.000000 0.000000 -1.000000 0.024994 0.000000
0.000000 0.000000 -0.475000 0.000000 0.000000 -1.000000 0.125000 0.000000
0.000000 0.000000 -0.475000 0.000000 0.000000 -1.000000 0.174927 0.000000
0.000000 0.000000 -0.475000 0.000000 0.000000 -1.000000 0.224976 0.000000
0.000000 0.000000 -0.475000 0.000000 0.000000 -1.000000 0.274902 0.000000
0.000000 0.000000 -0.475000 0.000000 0.000000 -1.000000 0.375000 0.000000
0.000000 0.000000 -0.475000 0.000000 0.000000 -1.000000 0.324951 0.000000
0.000000 0.000000 -0.475000 0.000000 0.000000 -1.000000 0.424805 0.000000
0.000000 0.000000 -0.475000 0.000000 0.000000 -1.000000 0.474854 0.000000
0.000000 0.000000 -0.475000 0.000000 0.000000 -1.000000 0.524902 0.000000
0.000000 0.000000 -0.475000 0.000000 0.000000 -1.000000 0.574707 0.000000
0.000000 0.000000 -0.475000 0.000000 0.000000 -1.000000 0.625000 0.000000
0.000000 0.000000 -0.475000 0.000000 0.000000 -1.000000 0.674805 0.000000
0.000000 0.000000 -0.475000 0.000000 0.000000 -1.000000 0.924805 0.000000
-0.022962 0.070670 -0.469152 -0.050691 0.156011 -0.986419 1.000000 0.050293
0.000000 0.000000 -0.475000 0.000000 0.000000 -1.000000 0.974609 0.000000
-0.045359 0.139599 -0.451752 -0.097659 0.300607 -0.948729 1.000000 0.100098
-0.066638 0.205091 -0.423228 -0.142186 0.437635 -0.887814 1.000000 0.150391
0.000000 -0.000000 0.475000 0.000000 0.000000 1.000000 0.724609 0.999969
0.000000 -0.000000 0.475000 0.000000 0.000000 1.000000 0.674805 0.999969
0.000000 -0.000000 0.475000 0.000000 0.000000 1.000000 0.574707 0.999969
0.000000 -0.000000 0.475000 0.000000 0.000000 1.000000 0.524902 0.999969
0.000000 -0.000000 0.475000 0.000000 0.000000 1.000000 0.474854 0.999969
0.000000 -0.000000 0.475000 0.000000 0.000000 1.000000 0.424805 0.999969
0.000000 -0.000000 0.475000 0.000000 0.000000 1.000000 0.375000 0.999969
0.000000 -0.000000 0.475000 0.000000 0.000000 1.000000 0.324951 0.999969
0.000000 -0.000000 0.475000 0.000000 0.000000 1.000000 0.024994 0.999969
0.000000 -0.000000 0.475000 0.000000 0.000000 1.000000 0.274902 0.999969
0.000000 -0.000000 0.475000 0.000000 0.000000 1.000000 0.125000 0.999969
0.000000 -0.000000 0.475000 0.000000 0.000000 1.000000 0.224976 0.999969
0.000000 -0.000000 0.475000 0.000000 0.000000 1.000000 0.174927 0.999969
-0.066638 0.205091 0.423228 -0.142186 0.437635 0.887814 0.000031 0.850098
-0.086277 0.265533 0.384283 -0.183203 0.563829 0.805292 0.000031 0.800049
-0.103791 0.319437 0.335876 -0.219703 0.676168 0.703207 0.000031 0.750122
-0.045358 0.139599 0.451752 -0.097659 0.300607 0.948729 0.000031 0.900024
-0.139599 0.429642 0.146783 -0.294107 0.905179 0.306742 0.000031 0.600098
-0.144976 0.446190 -0.074306 -0.305246 0.939512 -0.155217 0.000031 0.450195
0.000000 -0.000000 0.475000 0.000000 0.000000 1.000000 0.875000 0.999969
0.000000 -0.000000 0.475000 0.000000 0.000000 1.000000 0.824707 0.999969
0.000000 -0.000000 0.475000 0.000000 0.000000 1.000000 0.924805 0.999969
-0.022962 0.070670 0.469152 -0.050691 0.156011 0.986419 1.000000 0.950012
0.000000 -0.000000 0.475000 0.000000 0.000000 1.000000 0.974609 0.999969
-0.118750 0.365475 0.279198 -0.250801 0.771935 0.584063 1.000000 0.700195
-0.130785 0.402514 0.215645 -0.275826 0.848903 0.450850 1.000000 0.650146
-0.144976 0.446190 0.074306 -0.305246 0.939512 0.155217 1.000000 0.550049
-0.146783 0.451752 0.000000 -0.309000 0.951048 0.000000 1.000000 0.500244
-0.139599 0.429642 -0.146783 -0.294107 0.905179 -0.306742 1.000000 0.400391
-0.118750 0.365475 -0.279198 -0.250801 0.771935 -0.584063 1.000000 0.300293
0.000000 0.000000 -0.475000 0.000000 0.000000 -1.000000 0.724609 0.000000
0.000000 0.000000 -0.475000 0.000000 0.000000 -1.000000 0.875000 0.000000
0.000000 0.000000 -0.475000 0.000000 0.000000 -1.000000 0.824707 0.000000
0.000000 0.000000 -0.475000 0.000000 0.000000 -1.000000 0.774902 0.000000
0.000000 -0.000000 0.475000 0.000000 0.000000 1.000000 0.074951 0.999969
-0.130785 0.402514 -0.215645 -0.275826 0.848903 -0.450850 0.000031 0.350098
-0.103791 0.319437 -0.335876 -0.219703 0.676168 -0.703207 0.000031 0.250000
-0.086277 0.265533 -0.384283 -0.183203 0.563829 -0.805292 0.000031 0.200195
0.000000 -0.000000 0.475000 0.000000 0.000000 1.000000 0.774902 0.999969
3 0 1 2
3 2 1 3
3 2 3 4
3 3 5 4
3 5 6 4
3 4 6 7
3 7 6 8
3 9 10 11
3 9 11 12
3 11 0 12
3 12 0 13
3 13 0 2
3 13 2 14
3 14 2 4
3 14 4 15
3 4 7 15
3 7 16 15
3 17 18 19
3 19 16 17
3 20 17 16
3 16 7 20
3 21 22 23
3 21 24 22
3 24 25 22
3 22 25 26
3 18 26 25
3 18 27 26
3 27 18 17
3 28 27 17
3 17 20 28
3 26 29 30
3 27 29 26
3 27 31 29
3 31 27 28
3 32 29 31
3 29 32 33
3 30 29 33
3 34 30 33
3 34 33 35
3 33 36 35
3 36 33 37
3 32 37 33
3 38 36 39
3 36 38 35
3 40 35 38
3 35 40 34
3 41 34 40
3 34 41 23
3 23 30 34
3 23 22 30
3 22 26 30
3 42 38 39
3 38 42 43
3 43 40 38
3 40 43 44
3 44 41 40
3 41 44 45
3 45 46 41
3 46 23 41
3 23 46 21
3 47 42 48
3 42 47 43
3 49 43 47
3 43 49 44
3 50 44 49
3 44 50 45
3 50 51 45
3 46 45 51
3 51 52 46
3 49 53 50
3 54 55 56
3 55 57 56
3 55 58 57
3 59 57 58
3 58 53 59
3 49 59 53
3 49 60 59
3 60 49 47
3 47 61 60
3 61 47 48
3 61 62 57
3 60 61 57
3 57 59 60
3 57 62 56
3 56 62 63
3 64 56 63
3 54 56 64
3 65 54 64
3 54 65 66
3 65 67 66
3 67 65 68
3 69 67 68
3 68 70 69
3 69 70 71
3 72 71 70
3 69 71 73
3 74 69 73
3 67 69 74
3 74 75 67
3 75 66 67
3 66 75 76
3 74 73 77
3 74 77 78
3 75 74 78
3 78 79 75
3 79 76 75
3 76 79 80
3 81 76 80
3 80 82 81
3 79 78 83
3 79 83 84
3 84 85 79
3 85 80 79
3 80 85 86
3 82 80 86
3 86 87 82
3 88 82 87
3 87 89 88
3 89 90 88
3 89 91 90
3 92 85 84
3 93 91 89
3 94 93 89
3 89 87 94
3 95 94 87
3 87 86 95
3 85 95 86
3 95 85 96
3 92 96 85
3 97 96 92
3 98 97 92
3 94 95 99
3 96 99 95
3 99 96 100
3 97 100 96
3 101 100 97
3 101 102 100
3 103 102 101
3 93 94 104
3 99 104 94
3 104 99 105
3 102 105 99
3 102 99 100
3 106 107 93
3 104 106 93
3 106 104 108
3 105 108 104
3 108 105 109
3 102 109 105
3 109 102 110
3 103 110 102
3 103 111 110
3 111 109 110
3 111 112 109
3 112 108 109
3 112 113 108
3 113 106 108
3 113 114 106
3 115 106 114
3 106 115 116
3 117 116 115
3 116 117 118
3 119 118 117
3 120 114 113
3 121 120 113
3 121 113 112
3 111 121 112
3 122 123 120
3 123 124 120
3 120 124 114
3 125 114 124
3 114 125 115
3 126 115 125
3 115 126 117
3 127 117 126
3 117 127 119
3 127 128 119
3 129 130 131
3 130 129 132
3 128 132 129
3 133 132 128
3 127 133 128
3 133 127 134
3 126 134 127
3 134 126 135
3 125 135 126
3 135 125 136
3 133 137 132
3 138 137 133
3 134 138 133
3 138 134 139
3 135 139 134
3 139 135 140
3 136 140 135
3 140 136 141
3 142 141 136
3 141 142 143
3 138 144 137
3 145 144 138
3 139 145 138
3 145 139 146
3 140 146 139
3 146 140 147
3 141 147 140
3 147 141 148
3 143 148 141
3 148 143 149
3 149 150 148
3 150 149 151
3 152 151 149
3 148 153 147
3 153 148 150
3 154 153 150
3 151 154 150
3 154 151 155
3 152 155 151
3 155 152 156
3 156 157 155
3 157 156 158
3 155 159 154
3 159 155 157
3 153 154 160
3 159 160 154
3 160 159 161
3 162 158 163
3 158 162 157
3 164 157 162
3 157 164 159
3 165 159 164
3 159 165 161
3 165 166 161
3 166 160 161
3 160 166 167
3 165 164 168
3 166 165 169
3 170 146 171
3 171 172 170
3 172 171 167
3 167 173 172
3 173 167 166
3 166 174 173
3 174 166 169
3 175 173 174
3 173 175 176
3 177 170 172
3 172 173 177
3 176 177 173
3 178 177 176
3 178 176 175
3 179 178 175
3 177 178 180
3 181 180 178
3 181 182 180
3 177 180 182
3 182 183 177
3 170 177 183
3 184 170 183
3 184 185 170
3 185 184 186
3 187 186 184
3 186 187 188
3 189 190 191
3 192 191 190
3 191 192 193
3 194 193 192
3 193 194 181
3 182 181 194
3 194 187 182
3 184 182 187
3 182 184 183
3 195 178 179
3 178 195 196
3 178 196 181
3 197 181 196
3 181 197 193
3 198 193 197
3 193 198 191
3 199 191 198
3 191 199 189
3 200 198 197
3 196 200 197
3 200 196 195
3 201 202 203
3 203 202 204
3 202 205 204
3 206 204 205
3 204 206 207
3 199 207 206
3 207 199 208
3 198 208 199
3 208 198 209
3 198 200 209
3 206 189 199
3 189 206 210
3 205 210 206
3 210 205 211
3 202 211 205
3 211 202 212
3 213 214 215
3 216 215 214
3 214 217 216
3 218 216 217
3 214 213 219
3 217 214 220
3 219 220 214
3 221 218 222
3 217 222 218
3 222 217 223
3 220 223 217
3 223 220 224
3 225 221 226
3 222 226 221
3 226 222 227
3 223 227 222
3 227 223 228
3 224 228 223
3 228 224 229
3 224 230 229
3 229 230 231
3 231 232 233
3 229 231 233
3 234 229 233
3 229 234 228
3 235 228 234
3 228 235 227
3 236 227 235
3 227 236 226
3 234 233 232
3 234 232 237
3 235 234 237
3 235 237 238
3 236 235 238
3 236 238 239
3 240 236 239
3 239 241 240
3 242 240 241
3 241 243 242
3 244 245 243
3 243 241 244
3 246 244 241
3 241 239 246
3 239 247 246
3 239 238 247
3 238 248 247
3 238 237 248
3 237 249 248
3 237 232 249
3 244 246 250
3 246 251 250
3 246 247 251
3 247 252 251
3 247 248 252
3 253 252 248
3 248 249 253
3 252 253 10
3 10 9 252
3 251 252 9
3 251 9 254
3 254 9 12
3 12 255 254
3 13 255 12
3 255 13 256
3 14 256 13
3 256 14 257
3 15 257 14
3 250 251 254
3 250 254 258
3 258 254 255
3 258 255 259
3 256 259 255
3 259 256 260
3 257 260 256
3 257 15 16
3 16 19 257
3 260 257 19
3 19 261 260
3 261 259 260
3 259 261 262
3 262 258 259
3 258 262 263
3 263 250 258
3 250 263 244
3 262 261 264
3 264 263 262
3 263 264 245
3 245 244 263
3 52 21 46
3 52 265 21
3 24 21 265
3 265 266 24
3 245 24 266
3 24 245 264
3 24 264 25
3 261 25 264
3 261 18 25
3 19 18 261
3 51 50 267
3 267 268 51
3 52 51 268
3 268 269 52
3 269 265 52
3 269 270 265
3 270 266 265
3 270 271 266
3 245 266 271
3 271 243 245
3 272 242 243
3 243 271 272
3 273 272 271
3 273 271 270
3 274 273 270
3 274 270 269
3 275 274 269
3 269 268 275
3 276 275 268
3 268 267 276
3 274 275 277
3 277 278 274
3 278 273 274
3 278 279 273
3 279 272 273
3 279 280 272
3 280 242 272
3 280 281 242
3 240 242 281
3 281 282 240
3 131 280 279
3 131 283 280
3 283 281 280
3 283 284 281
3 282 281 284
3 285 282 284
3 283 285 284
3 285 283 286
3 131 286 283
3 286 131 130
3 236 240 282
3 287 236 282
3 285 287 282
3 288 287 285
3 286 288 285
3 288 286 289
3 130 289 286
3 289 130 290
3 132 290 130
3 290 132 137
3 287 226 236
3 225 226 287
3 288 225 287
3 225 288 291
3 289 291 288
3 291 289 292
3 290 292 289
3 292 290 293
3 137 293 290
3 293 137 144
3 292 294 291
3 294 292 295
3 293 295 292
3 295 293 188
3 144 188 293
3 188 144 186
3 145 186 144
3 186 145 185
3 146 185 145
3 146 170 185
3 296 188 187
3 188 296 295
3 297 295 296
3 295 297 294
3 298 294 297
3 294 298 299
3 298 300 299
3 298 301 300
3 302 300 301
3 301 303 302
3 304 190 305
3 190 304 306
3 306 304 301
3 301 298 306
3 297 306 298
3 297 190 306
3 190 297 192
3 296 192 297
3 192 296 194
3 187 194 296
3 303 301 304
3 304 307 303
3 307 304 305
3 308 303 307
3 309 302 303
3 303 308 309
3 310 309 308
3 308 212 310
3 212 308 211
3 307 211 308
3 211 307 210
3 305 210 307
3 210 305 189
3 190 189 305
3 309 310 215
3 215 216 309
3 302 309 216
3 216 218 302
3 300 302 218
3 218 221 300
3 299 300 221
3 299 221 225
3 291 299 225
3 299 291 294
3 311 312 313
3 312 311 314
3 311 315 314
3 315 316 314
3 316 315 317
3 314 316 312
3 312 316 318
3 315 319 317
3 319 315 320
3 315 321 320
3 321 315 322
3 315 311 322
3 323 322 311
3 313 323 311
3 323 313 324
3 325 326 321
3 327 321 326
3 321 327 320
3 328 143 142
3 143 328 329
3 330 329 328
3 329 330 324
3 331 324 330
3 324 331 323
3 331 332 323
3 322 323 332
3 325 322 332
3 322 325 321
3 333 334 335
3 335 336 333
3 331 333 336
3 332 331 336
3 337 332 336
3 332 337 325
3 337 338 325
3 326 325 338
3 336 335 337
3 339 337 335
3 338 337 339
3 124 136 125
3 136 124 142
3 123 142 124
3 328 142 123
3 340 328 123
3 328 340 330
3 340 331 330
3 340 341 331
3 333 331 341
3 341 342 333
3 343 344 345
3 345 346 343
3 346 345 347
3 347 342 346
3 348 346 342
3 342 341 348
3 340 348 341
3 348 340 122
3 123 122 340
3 349 343 346
3 346 348 349
3 122 349 348
3 334 333 342
3 342 347 334
3 350 347 345
3 351 344 352
3 352 97 98
3 352 101 97
3 344 101 352
3 344 103 101
3 344 343 103
3 111 103 343
3 343 349 111
3 121 111 349
3 349 122 121
3 120 121 122
3 353 98 354
3 355 356 357
3 357 358 355
3 358 357 77
3 98 92 354
3 354 92 84
3 354 84 356
3 356 84 83
3 356 83 357
3 78 357 83
3 78 77 357
3 64 63 359
3 360 64 359
3 64 360 65
3 360 68 65
3 68 360 361
3 70 68 361
3 362 363 364
3 365 364 363
3 365 363 366
3 267 367 276
3 267 362 367
3 368 367 362
3 362 364 368
3 369 368 364
3 369 364 365
3 81 369 365
3 81 365 366
3 81 366 370
3 76 81 370
3 369 81 82
3 82 88 369
3 88 368 369
3 88 90 368
3 90 367 368
3 90 371 367
3 276 367 371
3 371 372 276
3 275 276 372
3 372 277 275
3 91 371 90
3 91 373 371
3 372 371 373
3 373 374 372
3 277 372 374
3 374 375 277
3 278 277 375
3 375 129 278
3 129 279 278
3 129 131 279
3 119 128 376
3 128 129 376
3 129 375 376
3 377 376 375
3 375 374 377
3 378 377 374
3 378 374 373
3 107 378 373
3 107 373 91
3 93 107 91
3 118 119 379
3 119 376 379
3 376 377 379
3 118 379 377
3 118 377 378
3 116 118 378
3 116 378 107
3 106 116 107
3 380 253 249
3 381 11 10
3 167 153 160
3 153 167 171
3 171 147 153
3 147 171 146
3 76 54 66
3 54 76 370
3 370 55 54
3 370 366 55
3 366 58 55
3 366 363 58
3 53 58 363
3 363 362 53
3 50 53 362
3 50 362 267
3 329 149 143
3 149 329 152
3 324 152 329
3 324 156 152
3 156 324 313
3 313 158 156
3 158 313 312
3 312 163 158
3 163 312 318
3 6 5 382
3 20 7 383
3 28 20 384
3 31 28 385
3 32 31 386
3 36 37 387
3 37 32 388
3 39 36 389
3 42 39 390
3 48 42 391
3 61 48 392
3 62 61 393
3 63 62 394
3 72 70 395
3 396 72 397
3 396 71 72
3 71 396 398
3 398 73 71
3 73 398 399
3 399 77 73
3 162 163 400
3 164 162 401
3 169 165 402
3 174 169 403
3 175 174 404
3 179 175 405
3 195 179 406
3 200 195 407
3 201 203 408
3 209 200 409
3 204 207 410
3 208 209 411
3 207 208 412
3 202 413 212
3 414 212 413
3 212 414 310
3 414 215 310
3 215 414 415
3 413 202 416
3 202 201 416
3 215 415 213
3 220 219 417
3 417 224 220
3 224 417 230
3 418 249 232
3 232 231 418
3 316 317 419
3 318 316 420
3 317 319 421
3 422 320 327
3 320 422 319
3 319 422 423
3 424 334 425
3 424 335 334
3 335 424 339
3 425 334 347
3 425 347 350
3 350 345 426
3 426 345 344
3 426 344 427
3 344 351 427
3 352 428 351
3 428 352 98
3 98 353 428
3 354 429 353
3 429 354 356
3 356 355 429
3 77 399 358
3 359 63 430
3 70 361 431
3 361 360 432
3 360 359 433
3 203 204 434
3 249 418 380
3 253 380 435
3 435 10 253
3 10 435 381
3 11 381 436
3 436 0 11
3 0 436 437
3 0 437 1
3 163 318 438
