ply
format ascii 1.0
comment Created by Blender 2.69 (sub 0) - www.blender.org, source file: 'skyboxmy.blend'
element vertex 24
property float x
property float y
property float z
property float nx
property float ny
property float nz
property float s
property float t
element face 6
property list uchar uint vertex_indices
end_header
1.000000 1.000000 -1.000000 -0.577349 -0.577349 0.577349 0.252075 0.002865
-1.000000 1.000000 -1.000000 0.577349 -0.577349 0.577349 0.250913 0.332943
-1.000000 -1.000000 -1.000000 0.577349 0.577349 0.577349 0.499480 0.332602
1.000000 -1.000000 -1.000000 -0.577349 0.577349 0.577349 0.498739 0.001693
1.000000 0.999999 1.000000 -0.577349 -0.577349 -0.577349 0.250862 0.667243
0.999999 -1.000001 1.000000 -0.577349 0.577349 -0.577349 0.498737 0.668153
-1.000000 -1.000000 1.000000 0.577349 0.577349 -0.577349 0.499226 0.999483
-1.000000 1.000000 1.000000 0.577349 -0.577349 -0.577349 0.250807 0.999294
1.000000 1.000000 -1.000000 -0.577349 -0.577349 0.577349 0.250703 0.335771
1.000000 -1.000000 -1.000000 -0.577349 0.577349 0.577349 0.500702 0.336894
0.999999 -1.000001 1.000000 -0.577349 0.577349 -0.577349 0.499863 0.669108
1.000000 0.999999 1.000000 -0.577349 -0.577349 -0.577349 0.249864 0.667985
1.000000 -1.000000 -1.000000 -0.577349 0.577349 0.577349 0.500234 0.335437
-1.000000 -1.000000 -1.000000 0.577349 0.577349 0.577349 0.747686 0.334878
-1.000000 -1.000000 1.000000 0.577349 0.577349 -0.577349 0.748710 0.666300
0.999999 -1.000001 1.000000 -0.577349 0.577349 -0.577349 0.500081 0.665852
-1.000000 -1.000000 -1.000000 0.577349 0.577349 0.577349 0.748149 0.335869
-1.000000 1.000000 -1.000000 0.577349 -0.577349 0.577349 0.998467 0.336493
-1.000000 1.000000 1.000000 0.577349 -0.577349 -0.577349 0.997039 0.665756
-1.000000 -1.000000 1.000000 0.577349 0.577349 -0.577349 0.747041 0.664706
-1.000000 1.000000 -1.000000 0.577349 -0.577349 0.577349 0.001048 0.335430
1.000000 1.000000 -1.000000 -0.577349 -0.577349 0.577349 0.249547 0.335711
1.000000 0.999999 1.000000 -0.577349 -0.577349 -0.577349 0.250239 0.665477
-1.000000 1.000000 1.000000 0.577349 -0.577349 -0.577349 0.000331 0.665171
4 0 1 2 3
4 4 5 6 7
4 8 9 10 11
4 12 13 14 15
4 16 17 18 19
4 20 21 22 23
